<?xml version="1.0" encoding="UTF-8"?>
<svg id="Layer_2" data-name="Layer 2" xmlns="http://www.w3.org/2000/svg" viewBox="0 0 568.83 646.75">
  <defs>
    <style>
      .cls-1 {
        fill: #6d6e71;
        stroke-width: 0px;
      }
    </style>
  </defs>
  <g id="Layer_1-2" data-name="Layer 1">
    <g>
      <circle class="cls-1" cx="24.68" cy="24.68" r="24.68"/>
      <circle class="cls-1" cx="24.68" cy="84.42" r="24.68"/>
      <circle class="cls-1" cx="24.68" cy="144.16" r="24.68"/>
      <circle class="cls-1" cx="24.68" cy="203.9" r="24.68"/>
      <circle class="cls-1" cx="24.68" cy="263.64" r="24.68"/>
      <circle class="cls-1" cx="24.68" cy="323.38" r="24.68"/>
      <circle class="cls-1" cx="24.68" cy="383.12" r="24.68"/>
      <circle class="cls-1" cx="24.68" cy="442.86" r="24.68"/>
      <circle class="cls-1" cx="24.68" cy="502.6" r="24.68"/>
      <circle class="cls-1" cx="24.68" cy="562.34" r="24.68"/>
      <circle class="cls-1" cx="24.68" cy="622.08" r="24.68"/>
      <circle class="cls-1" cx="89.61" cy="24.68" r="24.68"/>
      <circle class="cls-1" cx="89.61" cy="84.42" r="24.68"/>
      <circle class="cls-1" cx="89.61" cy="144.16" r="24.68"/>
      <circle class="cls-1" cx="89.61" cy="203.9" r="24.68"/>
      <circle class="cls-1" cx="89.61" cy="263.64" r="24.68"/>
      <circle class="cls-1" cx="89.61" cy="323.38" r="24.68"/>
      <circle class="cls-1" cx="89.61" cy="383.12" r="24.68"/>
      <circle class="cls-1" cx="89.61" cy="442.86" r="24.68"/>
      <circle class="cls-1" cx="89.61" cy="502.6" r="24.68"/>
      <circle class="cls-1" cx="89.61" cy="562.34" r="24.68"/>
      <circle class="cls-1" cx="89.61" cy="622.08" r="24.68"/>
      <circle class="cls-1" cx="154.55" cy="24.68" r="24.68"/>
      <circle class="cls-1" cx="154.55" cy="84.42" r="24.68"/>
      <circle class="cls-1" cx="154.55" cy="144.16" r="24.68"/>
      <circle class="cls-1" cx="154.55" cy="203.9" r="24.68"/>
      <circle class="cls-1" cx="154.55" cy="263.64" r="24.68"/>
      <circle class="cls-1" cx="154.55" cy="323.38" r="24.68"/>
      <circle class="cls-1" cx="154.55" cy="383.12" r="24.68"/>
      <circle class="cls-1" cx="154.55" cy="442.86" r="24.68"/>
      <circle class="cls-1" cx="154.55" cy="502.6" r="24.68"/>
      <circle class="cls-1" cx="154.55" cy="562.34" r="24.68"/>
      <circle class="cls-1" cx="154.55" cy="622.08" r="24.68"/>
      <circle class="cls-1" cx="219.48" cy="24.68" r="24.68"/>
      <circle class="cls-1" cx="219.48" cy="84.42" r="24.68"/>
      <circle class="cls-1" cx="219.48" cy="144.16" r="24.68"/>
      <circle class="cls-1" cx="219.48" cy="203.9" r="24.68"/>
      <circle class="cls-1" cx="219.48" cy="263.64" r="24.68"/>
      <circle class="cls-1" cx="219.48" cy="323.38" r="24.68"/>
      <circle class="cls-1" cx="219.48" cy="383.12" r="24.68"/>
      <circle class="cls-1" cx="219.48" cy="442.86" r="24.68"/>
      <circle class="cls-1" cx="219.48" cy="502.6" r="24.68"/>
      <circle class="cls-1" cx="219.48" cy="562.34" r="24.68"/>
      <circle class="cls-1" cx="219.48" cy="622.08" r="24.68"/>
      <circle class="cls-1" cx="284.42" cy="24.68" r="24.68"/>
      <circle class="cls-1" cx="284.42" cy="84.42" r="24.68"/>
      <circle class="cls-1" cx="284.42" cy="144.16" r="24.68"/>
      <circle class="cls-1" cx="284.42" cy="203.9" r="24.68"/>
      <circle class="cls-1" cx="284.42" cy="263.64" r="24.68"/>
      <circle class="cls-1" cx="284.42" cy="323.38" r="24.68"/>
      <circle class="cls-1" cx="284.42" cy="383.12" r="24.68"/>
      <circle class="cls-1" cx="284.42" cy="442.86" r="24.68"/>
      <circle class="cls-1" cx="284.42" cy="502.6" r="24.68"/>
      <circle class="cls-1" cx="284.42" cy="562.34" r="24.68"/>
      <circle class="cls-1" cx="284.42" cy="622.08" r="24.68"/>
      <circle class="cls-1" cx="349.35" cy="24.68" r="24.68"/>
      <circle class="cls-1" cx="349.35" cy="84.42" r="24.68"/>
      <circle class="cls-1" cx="349.35" cy="144.16" r="24.68"/>
      <circle class="cls-1" cx="349.35" cy="203.9" r="24.68"/>
      <circle class="cls-1" cx="349.35" cy="263.64" r="24.68"/>
      <circle class="cls-1" cx="349.35" cy="323.38" r="24.68"/>
      <circle class="cls-1" cx="349.35" cy="383.12" r="24.68"/>
      <circle class="cls-1" cx="349.35" cy="442.86" r="24.68"/>
      <circle class="cls-1" cx="349.35" cy="502.6" r="24.68"/>
      <circle class="cls-1" cx="349.35" cy="562.34" r="24.68"/>
      <circle class="cls-1" cx="349.35" cy="622.08" r="24.68"/>
      <circle class="cls-1" cx="414.29" cy="24.68" r="24.68"/>
      <circle class="cls-1" cx="414.29" cy="84.42" r="24.68"/>
      <circle class="cls-1" cx="414.29" cy="144.16" r="24.68"/>
      <circle class="cls-1" cx="414.29" cy="203.9" r="24.68"/>
      <circle class="cls-1" cx="414.29" cy="263.64" r="24.68"/>
      <circle class="cls-1" cx="414.29" cy="323.38" r="24.68"/>
      <circle class="cls-1" cx="414.29" cy="383.12" r="24.68"/>
      <circle class="cls-1" cx="414.29" cy="442.86" r="24.68"/>
      <circle class="cls-1" cx="414.29" cy="502.6" r="24.68"/>
      <circle class="cls-1" cx="414.29" cy="562.34" r="24.68"/>
      <circle class="cls-1" cx="414.29" cy="622.08" r="24.68"/>
      <circle class="cls-1" cx="479.22" cy="24.68" r="24.68"/>
      <circle class="cls-1" cx="479.22" cy="84.42" r="24.68"/>
      <circle class="cls-1" cx="479.22" cy="144.16" r="24.68"/>
      <circle class="cls-1" cx="479.22" cy="203.9" r="24.68"/>
      <circle class="cls-1" cx="479.22" cy="263.64" r="24.68"/>
      <circle class="cls-1" cx="479.22" cy="323.38" r="24.68"/>
      <circle class="cls-1" cx="479.22" cy="383.12" r="24.68"/>
      <circle class="cls-1" cx="479.22" cy="442.86" r="24.68"/>
      <circle class="cls-1" cx="479.22" cy="502.6" r="24.68"/>
      <circle class="cls-1" cx="479.22" cy="562.34" r="24.68"/>
      <circle class="cls-1" cx="479.22" cy="622.08" r="24.68"/>
      <circle class="cls-1" cx="544.16" cy="24.68" r="24.68"/>
      <circle class="cls-1" cx="544.16" cy="84.42" r="24.68"/>
      <circle class="cls-1" cx="544.16" cy="144.16" r="24.68"/>
      <circle class="cls-1" cx="544.16" cy="203.9" r="24.68"/>
      <circle class="cls-1" cx="544.16" cy="263.64" r="24.68"/>
      <circle class="cls-1" cx="544.16" cy="323.38" r="24.68"/>
      <circle class="cls-1" cx="544.16" cy="383.12" r="24.68"/>
      <circle class="cls-1" cx="544.16" cy="442.86" r="24.68"/>
      <circle class="cls-1" cx="544.16" cy="502.6" r="24.68"/>
      <circle class="cls-1" cx="544.16" cy="562.34" r="24.68"/>
      <circle class="cls-1" cx="544.16" cy="622.08" r="24.68"/>
    </g>
  </g>
</svg>